<svg xmlns="http://www.w3.org/2000/svg" xmlns:xlink="http://www.w3.org/1999/xlink" version="1.1" xml:space="preserve" class="u-svg-content" viewBox="0 0 112 112" x="0" y="0" id="svg-9e0b" data-color="#0089cb"><circle fill="#0089cb" cx="56.1" cy="56.1" r="55"></circle><path fill="#FFFFFF" d="M88,51.3c0-5.5-1.9-10.2-5.3-13.7c0.6-1.3,2.3-6.5-0.5-13.5c0,0-4.2-1.4-14,5.3c-4.1-1.1-8.4-1.7-12.7-1.8
	c-4.3,0-8.7,0.6-12.7,1.8c-9.7-6.6-14-5.3-14-5.3c-2.8,7-1,12.2-0.5,13.5C25,41.2,23,45.7,23,51.3c0,19.6,11.9,23.9,23.3,25.2
	c-1.5,1.3-2.8,3.5-3.2,6.8c-3,1.3-10.2,3.6-14.9-4.3c0,0-2.7-4.9-7.8-5.3c0,0-5-0.1-0.4,3.1c0,0,3.3,1.6,5.6,7.5c0,0,3,9.1,17.2,6
	c0,4.3,0.1,8.3,0.1,9.5h25.2c0-1.7,0.1-7.2,0.1-14c0-4.7-1.7-7.9-3.4-9.4C76,75.2,88,70.9,88,51.3z"></path></svg>