<svg xmlns="http://www.w3.org/2000/svg" xmlns:xlink="http://www.w3.org/1999/xlink" version="1.1" xml:space="preserve" class="u-svg-content" viewBox="0 0 112 112" x="0" y="0" id="svg-9ebb" data-color="#42abf0"><circle fill="#42abf0" cx="56.1" cy="56.1" r="55"></circle><path fill="#FFFFFF" d="M56.3,78.5c-12.4,0-18-6.3-18-10.9c0-2.4,1.9-4,4.2-4c5.3,0,3.9,7.9,13.8,7.9c5,0,8-3,8-5.9
	c0-1.7-1-3.6-4.3-4.4l-11-2.8c-8.8-2.3-10.4-7.2-10.4-11.7c0-9.5,8.7-12.9,16.9-12.9c7.6,0,16.6,4.2,16.6,9.9c0,2.4-2,3.8-4.4,3.8
	c-4.5,0-3.8-6.3-12.8-6.3c-4.5,0-6.9,2.1-6.9,5.1c0,3,3.5,4,6.6,4.7l8.1,1.8c8.9,2,11.3,7.2,11.3,12.2C74,72.5,68,78.5,56.3,78.5
	 M90.3,62.2c0.3-2,0.5-4,0.5-6.1c0-19.3-15.6-35-34.8-35c-2.1,0-4.1,0.2-6,0.5c-3-1.7-6.5-2.7-10.2-2.7c-11.4,0-20.7,9.3-20.7,20.8
	c0,3.8,1,7.3,2.7,10.3c-0.3,2-0.5,4-0.5,6.1c0,19.3,15.6,35,34.8,35c2.1,0,4.1-0.2,6-0.5c3,1.7,6.5,2.7,10.2,2.7
	C83.8,93.3,93,84,93,72.5C93,68.7,92.1,65.2,90.3,62.2"></path></svg>